<svg width="331" height="185" viewBox="0 0 331 185" fill="none" xmlns="http://www.w3.org/2000/svg">
<rect width="331" height="185" rx="40" fill="#1E1E1E"/>
<mask id="mask0_1_56" style="mask-type:alpha" maskUnits="userSpaceOnUse" x="0" y="0" width="331" height="185">
<rect width="331" height="185" rx="40" fill="#1E1E1E"/>
</mask>
<g mask="url(#mask0_1_56)">
<g opacity="0.1">
<g style="mix-blend-mode:multiply" opacity="0.2">
<path d="M428.078 87.1604L370.445 55.82C367.038 53.9618 361.48 54.0238 358.12 55.9593L208.37 141.418C205.01 143.353 200.179 145.676 202.703 152.288C202.703 152.288 205.846 161.841 222.476 170.017C245.455 181.305 260.382 184.154 260.382 184.154C263.789 186.028 275.882 182.281 279.242 180.345L428.806 96.2497C432.166 94.2986 431.469 89.0339 428.062 87.1758L428.078 87.1604Z" fill="black"/>
</g>
<path d="M427.008 63.9028L424.051 59.8614C424.051 59.8614 424.051 49.0068 417.888 43.5873C411.725 38.1678 389.877 23.2099 376.823 19.3852C376.823 19.3852 373.51 18.0226 368.183 20.4227C362.872 22.8228 356.926 25.548 356.926 25.548C356.926 25.548 345.328 25.5016 335.217 28.4281C325.106 31.3546 293.549 47.8765 278.637 58.7156C271.607 63.8254 264.933 70.2669 259.839 75.64V75.0515C259.839 74.3393 259.39 73.4257 258.817 72.9921L256.34 71.0876C256.03 70.8553 255.782 70.8088 255.627 70.9327L254.342 71.0876C254.342 71.0876 254.311 71.0876 254.296 71.0876H254.234C254.032 71.134 253.924 71.3663 253.924 71.7534L253.986 73.9986C254.001 74.7109 254.389 75.7174 254.838 76.2593L256.912 78.7678C252.871 83.2273 250.363 86.3861 250.363 86.3861C250.363 86.3861 225.727 105.478 212.952 118.145C212.952 118.145 205.721 129.665 208.323 141.418C210.924 153.17 227.539 165.712 242.682 169.893C257.826 174.074 265.739 174.415 274.441 171.922L276.392 170.807L277.476 167.044C279.798 158.605 286.116 147.704 293.564 143.276C300.176 139.343 306.726 143.198 306.586 150.77C306.571 151.746 306.478 152.737 306.323 153.728L310.612 151.018L381.469 111.238L383.172 110.186L384.287 106.113C386.222 97.9529 391.425 87.7023 398.858 83.2737C405.47 79.3407 412.019 83.1963 411.88 90.7527C411.88 91.3101 411.834 91.883 411.772 92.456C412.112 92.2082 419.746 86.7113 423.06 82.4066C426.451 77.9936 428.139 70.2514 427.008 63.8718V63.9028Z" fill="white"/>
<g style="mix-blend-mode:multiply" opacity="0.15">
<path d="M427.01 63.9027C426.917 64.6615 426.483 65.5441 425.369 66.4422C422.396 68.8268 408.181 77.2038 408.181 77.2038L423.665 64.646C423.665 64.646 425.028 63.175 424.052 59.8614C424.052 59.8614 424.052 49.0068 417.89 43.5873C417.812 43.5253 417.719 43.4325 417.642 43.3705L403.21 52.0263C403.21 52.0263 382.307 51.7166 377.537 53.0637C372.753 54.4108 346.352 62.5247 332.633 74.3702C318.914 86.2157 304.141 120.003 304.141 120.003C304.141 120.003 276.378 142.981 272.12 146.001C267.862 149.02 265.678 152.288 265.678 152.288L251.324 150.584C247.159 149.965 238.643 146.945 228.562 141.433C218.482 135.921 215.462 130.935 215.044 129.262C214.626 127.605 215.354 125.205 214.317 122.201C213.279 119.182 213.682 117.51 213.682 117.51C213.465 117.726 213.233 117.943 213.016 118.16C213.016 118.16 205.785 129.68 208.386 141.433C210.988 153.186 227.602 165.728 242.746 169.909C257.89 174.09 265.802 174.43 274.504 171.937L276.455 170.822L277.539 167.06C279.862 158.621 286.18 147.72 293.628 143.291C300.239 139.358 306.789 143.214 306.65 150.786C306.634 151.761 306.542 152.752 306.387 153.743L310.676 151.033L381.532 111.254L383.236 110.201L384.351 106.129C386.286 97.9684 391.489 87.7177 398.921 83.2892C405.533 79.3562 412.083 83.2118 411.944 90.7681C411.944 91.3256 411.897 91.8985 411.835 92.4714C412.176 92.2237 419.81 86.7267 423.123 82.4221C426.514 78.009 428.202 70.2669 427.072 63.8873L427.01 63.9027ZM326.222 115.373C326.222 115.713 326.067 115.977 325.866 116.132L325.045 116.673C324.813 116.828 324.503 116.859 324.178 116.751L319.037 114.955C318.759 114.862 318.495 114.66 318.279 114.413C317.365 114.18 316.575 113.871 316.297 113.499C315.538 112.493 316.297 111.579 316.297 111.579C316.452 111.331 317.055 111.486 317.83 111.811V110.511C317.83 110.155 317.954 109.907 318.155 109.783L319.285 109.133C319.548 109.04 319.858 109.055 320.121 109.179L325.231 112.214C325.851 112.539 326.331 113.391 326.3 114.088L326.238 115.388L326.222 115.373Z" fill="black"/>
</g>
<path d="M293.582 143.291C286.149 147.72 279.816 158.621 277.494 167.06L276.781 169.537L283.625 173.099C285.902 174.152 288.828 173.997 291.755 172.262C298.336 168.345 303.291 160.401 304.142 152.752L306.326 153.743C306.48 152.752 306.573 151.761 306.589 150.786C306.728 143.229 300.178 139.374 293.566 143.291H293.582Z" fill="#343433"/>
<path d="M296.199 142.13C295.347 142.378 294.464 142.765 293.582 143.291C287.884 146.682 282.836 153.882 279.739 160.85C279.429 162.259 279.259 163.669 279.243 165.062C279.104 172.34 285.406 176.041 291.77 172.262C298.924 168.02 304.127 159.023 304.297 150.801C304.405 145.258 300.767 141.789 296.199 142.13Z" fill="#575656"/>
<path d="M291.923 145.01C290.189 146.047 288.579 147.379 287.154 148.927C286.086 150.166 285.079 151.513 284.119 152.922C281.89 156.546 280.527 160.711 280.449 164.675C280.326 171.333 286.086 174.74 291.923 171.271C298.473 167.369 303.242 159.147 303.397 151.606C303.521 144.948 297.761 141.541 291.923 145.01Z" fill="#3A3939"/>
<path d="M301.402 153.882C301.293 159.797 297.592 166.254 292.529 169.32C288.023 172.046 283.548 169.382 283.657 164.149C283.765 158.234 287.466 151.777 292.529 148.711C297.035 145.985 301.51 148.664 301.402 153.882Z" fill="url(#paint0_linear_1_56)"/>
<path d="M301.03 154.301C300.922 159.921 297.407 166.084 292.576 168.995C288.287 171.581 284.028 169.042 284.121 164.071C284.23 158.435 287.745 152.288 292.576 149.376C296.865 146.791 301.123 149.33 301.03 154.301Z" fill="#CCCBCA"/>
<path opacity="0.5" d="M296.184 148.355C298.506 148.85 300.179 151.002 300.117 154.13C300.008 159.689 296.54 165.759 291.771 168.639C289.943 169.738 288.116 169.909 286.645 169.336C288.24 170.311 290.408 170.311 292.576 169.011C297.407 166.1 300.922 159.952 301.03 154.316C301.092 150.786 298.971 148.478 296.184 148.37V148.355Z" fill="white"/>
<path d="M297.56 156.809C297.498 159.797 295.624 163.08 293.054 164.629C290.762 166.007 288.501 164.66 288.548 162.012C288.61 159.008 290.483 155.741 293.054 154.192C295.346 152.814 297.606 154.161 297.56 156.809Z" fill="#E7E8E7"/>
<path d="M264.191 105.602C278.886 114.521 292.311 119.383 304.126 120.003C304.126 120.003 312.719 100.322 322.893 85.7357C322.893 85.7357 292.249 71.7378 280.45 59.9542C280.45 59.9542 263.696 71.6914 250.472 87.4235C250.472 87.4235 249.481 96.6832 264.176 105.602H264.191Z" fill="#141C1E"/>
<path d="M317.319 84.5899C314.516 83.2118 310.181 81.044 305.442 78.4581C293.86 72.156 285.421 66.5351 280.327 61.7195C276.704 64.3673 263.697 73.9367 252.548 87.0984C252.563 87.8261 254.081 90.5669 255.196 92.905C256.651 94.9025 260.368 99.0213 267.537 103.388C281.659 111.966 292.714 116.039 304.064 116.844C305.799 113.004 312.333 98.8975 320.865 86.2932C320.075 85.9216 318.96 85.3796 317.335 84.5744L317.319 84.5899Z" fill="#303E42"/>
<path opacity="0.7" d="M256.897 82.2208L287.308 67.3558C284.536 65.3738 282.198 63.4847 280.325 61.7195C277.166 64.0266 266.884 71.5985 256.897 82.2208Z" fill="#C5D0D3"/>
<path opacity="0.2" d="M258.649 96.7296C265.679 88.2907 277.524 77.6994 295.362 72.6515C288.843 68.6565 283.795 65.0022 280.327 61.7195C276.704 64.3673 263.697 73.9367 252.548 87.0984C252.563 87.8261 254.081 90.5669 255.196 92.905C255.846 93.8031 256.961 95.1348 258.649 96.7296Z" fill="white"/>
<path d="M254.685 149.206L267.227 150.755C267.227 150.755 270.773 150.491 272.043 156.004C272.043 156.004 270.076 157.258 260.708 157.614C251.34 157.97 247.252 156.654 247.252 156.654L249.947 151.838C249.947 151.838 251.216 148.788 254.669 149.206H254.685Z" fill="#EEF5F9"/>
<path d="M214.301 122.186C213.279 119.228 213.651 117.556 213.667 117.494C213.45 117.711 213.217 117.928 213.001 118.129C213.001 118.129 210.616 121.923 209.083 127.389C209.269 129.2 209.904 131.693 211.576 134.573C211.576 134.573 213.512 133.737 214.874 127.714C214.874 126.227 215.045 124.369 214.286 122.186H214.301Z" fill="#EEF5F9"/>
<path d="M274.472 171.937L276.423 170.822L277.46 167.23C274.193 168.035 263.834 170.064 249.341 167.927C231.689 165.325 211.342 153.666 208.23 140.705C208.276 140.938 208.323 141.185 208.369 141.418C210.97 153.17 227.585 165.713 242.729 169.893C257.873 174.074 265.785 174.415 274.487 171.922L274.472 171.937Z" fill="#515E61"/>
<path d="M379.611 107.507L309.684 147.038L306.571 149.593C306.602 149.98 306.618 150.367 306.602 150.77C306.587 151.746 306.494 152.737 306.339 153.728L310.628 151.018L381.485 111.239L383.188 110.186L384.148 106.717L379.626 107.491L379.611 107.507Z" fill="#515E61"/>
<path d="M217.012 145.954C221.905 149.717 229.57 154.765 236.321 156.623C241.957 158.172 244.992 152.752 246.649 149.407C242.066 147.967 235.702 145.32 228.532 141.417C220.961 137.283 217.368 133.428 215.882 131.074C214.875 133.799 213.605 137.035 213.296 137.98C212.878 139.265 212.103 142.207 217.012 145.97V145.954Z" fill="#303E42"/>
<g style="mix-blend-mode:multiply" opacity="0.2">
<path d="M210.938 141.712V138.94C209.498 136.215 208.538 133.474 208.089 132.049C207.826 133.923 207.718 135.89 207.857 137.918C209.313 140.21 210.923 141.712 210.923 141.712H210.938Z" fill="black"/>
</g>
<g style="mix-blend-mode:multiply" opacity="0.2">
<path d="M245.362 160.649L244.402 163.653C265.012 166.58 272.042 162.6 272.042 162.6L273.436 159.457C258.679 164.241 244.96 161.052 245.362 160.665V160.649Z" fill="black"/>
</g>
<path d="M392.247 58.3129C392.247 58.3129 387.369 56.9039 377.738 58.2665C368.107 59.6291 340.901 67.139 327.073 86.6648C313.246 106.191 309.034 118.81 309.034 118.81C309.034 118.81 311.31 117.494 317.241 114.072C316.792 113.902 316.451 113.701 316.281 113.484C315.522 112.477 316.281 111.564 316.281 111.564C316.435 111.316 317.039 111.471 317.814 111.796V110.495C317.814 110.139 317.937 109.891 318.139 109.767L319.269 109.117C319.532 109.024 319.842 109.04 320.105 109.164L322.892 110.82C329.597 106.965 339.12 101.514 352.297 93.9889C385.527 75.0051 394.508 65.126 394.508 65.126L392.247 58.3284V58.3129Z" fill="#141C1E"/>
<path d="M317.813 111.796V110.495C317.813 110.139 317.937 109.891 318.138 109.767L319.269 109.117C319.532 109.024 319.842 109.04 320.105 109.164L321.777 110.155C328.172 106.485 337.2 101.313 349.634 94.2057L345.639 71.3663C338.222 75.9032 332.307 81.2453 328.002 87.3151C323.031 94.3296 319.315 100.446 316.59 105.416L316.962 111.502C317.209 111.564 317.488 111.657 317.813 111.796Z" fill="#303E42"/>
</g>
</g>
<rect x="198" y="58.9528" width="30.9082" height="30.9082" rx="10" transform="rotate(-13 198 58.9528)" fill="#383838" fill-opacity="0.4"/>
<g clip-path="url(#clip0_1_56)">
<path d="M219.86 62.8849L210.766 64.9844C209.512 65.2739 208.728 66.529 209.017 67.7829L210.592 74.6034C210.882 75.8573 212.137 76.6416 213.391 76.3521L215.052 75.9685L217.597 77.2704C217.859 77.4135 218.153 77.4467 218.423 77.3837C218.689 77.3223 218.931 77.1694 219.094 76.9391L220.864 74.6268L222.485 74.2524C223.739 73.9629 224.523 72.7079 224.234 71.454L222.659 64.6334C222.37 63.3796 221.114 62.5954 219.86 62.8849ZM217.675 74.1656C217.205 74.2742 216.734 73.9804 216.626 73.5098C216.517 73.0392 216.811 72.5691 217.281 72.4604C217.752 72.3518 218.222 72.6455 218.331 73.1161C218.44 73.5868 218.146 74.0569 217.675 74.1656ZM217.794 70.3252C217.672 70.4197 217.492 70.7781 217.561 71.0787L217.587 71.1924C217.66 71.5067 217.465 71.8195 217.15 71.892C216.836 71.9646 216.523 71.7692 216.451 71.4549L216.424 71.3412C216.243 70.5545 216.625 69.7562 217.078 69.4045C217.449 69.1158 217.704 68.5271 217.387 67.9171C217.205 67.5666 216.817 67.3244 216.423 67.3143C216.035 67.3026 215.695 67.4566 215.461 67.7429C215.23 68.0254 215.145 68.3905 215.227 68.7446C215.299 69.0589 215.104 69.3716 214.79 69.4442C214.475 69.5168 214.163 69.3214 214.09 69.0071C213.926 68.2983 214.096 67.5688 214.558 67.0049C215.018 66.4401 215.709 66.1272 216.453 66.1482C217.271 66.1689 218.045 66.6518 218.422 67.3789C218.95 68.3934 218.686 69.6331 217.794 70.3258L217.794 70.3252Z" fill="#0CBA70"/>
</g>
<rect x="236.813" y="11" width="37.9132" height="37.9132" rx="14" transform="rotate(15 236.813 11)" fill="#383838" fill-opacity="0.4"/>
<g clip-path="url(#clip1_1_56)">
<path d="M256.418 39.5361L242.734 35.8695C242.371 35.7723 242.062 35.5348 241.874 35.2095C241.686 34.8841 241.635 34.4974 241.732 34.1345L241.916 33.4503C242.11 32.7244 242.585 32.1056 243.236 31.7298C243.886 31.3541 244.66 31.2523 245.386 31.4468L256.333 34.3801C257.059 34.5746 257.678 35.0494 258.053 35.7002C258.429 36.351 258.531 37.1243 258.336 37.8502L258.153 38.5344C258.056 38.8973 257.818 39.2067 257.493 39.3946C257.168 39.5825 256.781 39.6334 256.418 39.5361ZM243.091 37.4319C241.965 40.0296 246.111 41.139 246.433 38.3273L243.091 37.4319ZM251.986 39.8152C250.859 42.4129 255.005 43.5223 255.327 40.7105L251.986 39.8152ZM251.226 31.545L256.58 32.9796L255.153 29.034C254.959 28.4974 254.638 28.0156 254.218 27.6297C253.797 27.2438 253.29 26.965 252.739 26.8173L252.509 26.7557L251.226 31.545ZM251.141 26.389L250.115 26.114C249.42 25.9305 248.686 25.9613 248.01 26.2025C247.333 26.4438 246.746 26.8841 246.324 27.4655L244.544 29.9371C244.951 29.9255 245.358 29.9731 245.752 30.0784L249.858 31.1784L251.141 26.389Z" fill="#0CBA70"/>
</g>
<defs>
<linearGradient id="paint0_linear_1_56" x1="300.256" y1="150.755" x2="283.362" y2="168.778" gradientUnits="userSpaceOnUse">
<stop stop-color="#C1C0C0"/>
<stop offset="1" stop-color="#DEDDDC"/>
</linearGradient>
<clipPath id="clip0_1_56">
<rect width="14" height="14" fill="white" transform="translate(208.493 65.5093) rotate(-13)"/>
</clipPath>
<clipPath id="clip1_1_56">
<rect width="17" height="17" fill="white" transform="translate(244.666 23.1873) rotate(15)"/>
</clipPath>
</defs>
</svg>
