<svg width="15" height="21" viewBox="0 0 15 21" fill="none" xmlns="http://www.w3.org/2000/svg">
<path d="M10.8333 2.16667H10.6908C10.3467 1.19667 9.42 0.5 8.33333 0.5H6.66667C5.58 0.5 4.65333 1.19667 4.30917 2.16667H4.16667C1.86917 2.16667 0 4.03583 0 6.33333V16.3333C0 18.6308 1.86917 20.5 4.16667 20.5H10.8333C13.1308 20.5 15 18.6308 15 16.3333V6.33333C15 4.03583 13.1308 2.16667 10.8333 2.16667ZM3.33333 15.5C2.87333 15.5 2.5 15.1267 2.5 14.6667C2.5 14.2067 2.87333 13.8333 3.33333 13.8333C3.79333 13.8333 4.16667 14.2067 4.16667 14.6667C4.16667 15.1267 3.79333 15.5 3.33333 15.5ZM11.6667 15.5H6.66667C6.20667 15.5 5.83333 15.1267 5.83333 14.6667C5.83333 14.2067 6.20667 13.8333 6.66667 13.8333H11.6667C12.1267 13.8333 12.5 14.2067 12.5 14.6667C12.5 15.1267 12.1267 15.5 11.6667 15.5ZM3.33333 12.1667C2.87333 12.1667 2.5 11.7933 2.5 11.3333C2.5 10.8733 2.87333 10.5 3.33333 10.5C3.79333 10.5 4.16667 10.8733 4.16667 11.3333C4.16667 11.7933 3.79333 12.1667 3.33333 12.1667ZM11.6667 12.1667H6.66667C6.20667 12.1667 5.83333 11.7933 5.83333 11.3333C5.83333 10.8733 6.20667 10.5 6.66667 10.5H11.6667C12.1267 10.5 12.5 10.8733 12.5 11.3333C12.5 11.7933 12.1267 12.1667 11.6667 12.1667ZM3.33333 8.83333C2.87333 8.83333 2.5 8.46 2.5 8C2.5 7.54 2.87333 7.16667 3.33333 7.16667C3.79333 7.16667 4.16667 7.54 4.16667 8C4.16667 8.46 3.79333 8.83333 3.33333 8.83333ZM11.6667 8.83333H6.66667C6.20667 8.83333 5.83333 8.46 5.83333 8C5.83333 7.54 6.20667 7.16667 6.66667 7.16667H11.6667C12.1267 7.16667 12.5 7.54 12.5 8C12.5 8.46 12.1267 8.83333 11.6667 8.83333Z" fill="#6E6E6E"/>
</svg>
